<svg width="28" height="28" viewBox="0 0 28 28" fill="none" xmlns="http://www.w3.org/2000/svg">
<path d="M19.4346 20.65C19.1529 20.313 19.0121 19.9303 19.0121 19.502C19.0121 19.0747 19.1529 18.7185 19.4346 18.4333L22.2767 15.5556H11.2539C10.8186 15.5556 10.454 15.4062 10.1601 15.1076C9.86512 14.8099 9.71764 14.4407 9.71764 14C9.71764 13.5593 9.86512 13.1896 10.1601 12.8909C10.454 12.5933 10.8186 12.4444 11.2539 12.4444H22.2767L19.4346 9.56667C19.1273 9.25556 18.9737 8.88637 18.9737 8.45911C18.9737 8.03081 19.1273 7.66111 19.4346 7.35C19.7162 7.03889 20.0685 6.88333 20.4915 6.88333C20.9135 6.88333 21.2653 7.02593 21.5469 7.31111L27.0775 12.9111C27.2311 13.0667 27.3402 13.2352 27.4047 13.4167C27.4682 13.5981 27.5 13.7926 27.5 14C27.5 14.2074 27.4682 14.4019 27.4047 14.5833C27.3402 14.7648 27.2311 14.9333 27.0775 15.0889L21.5469 20.6889C21.2141 21.0259 20.8495 21.1747 20.4531 21.1353C20.0557 21.097 19.7162 20.9352 19.4346 20.65ZM3.57255 28C2.7276 28 2.00401 27.6956 1.40179 27.0869C0.800597 26.4771 0.5 25.7444 0.5 24.8889V3.11111C0.5 2.25556 0.800597 1.52289 1.40179 0.913111C2.00401 0.30437 2.7276 0 3.57255 0H12.7902C13.2255 0 13.5906 0.148815 13.8855 0.446444C14.1795 0.745111 14.3265 1.11481 14.3265 1.55556C14.3265 1.9963 14.1795 2.36548 13.8855 2.66311C13.5906 2.96178 13.2255 3.11111 12.7902 3.11111H3.57255V24.8889H12.7902C13.2255 24.8889 13.5906 25.0382 13.8855 25.3369C14.1795 25.6345 14.3265 26.0037 14.3265 26.4444C14.3265 26.8852 14.1795 27.2544 13.8855 27.552C13.5906 27.8507 13.2255 28 12.7902 28H3.57255Z" fill="#161616"/>
</svg>
