<?xml version="1.0" encoding="utf-8"?>
<!-- Generator: Adobe Illustrator 24.0.2, SVG Export Plug-In . SVG Version: 6.00 Build 0)  -->
<svg version="1.1" id="Layer_1" xmlns="http://www.w3.org/2000/svg" xmlns:xlink="http://www.w3.org/1999/xlink" x="0px" y="0px"
	 viewBox="0 0 100 100" style="enable-background:new 0 0 100 100;" xml:space="preserve">
<style type="text/css">
	.st0{fill:#B3E3F9;}
	.st1{fill:#FED5B3;}
	.st2{fill:#FFFFFF;}
	.st3{fill:none;}
	.st4{fill:#B5E4F6;}
</style>
<polygon class="st0" points="30.1,80.3 15.2,82.1 20.8,71.9 7.7,68.2 18.9,59.8 5.9,46.8 18.9,43 4,22.5 25.4,26.3 20.8,3 
	43.1,17.9 58,3 59.9,22.5 84.1,17 74.8,38.4 91.5,45.8 75.7,54.2 87.8,62.6 77.5,67.2 83.1,78.4 71,79.3 72,85.9 46.8,79.3 "/>
<path d="M72,86.9c-0.1,0-0.2,0-0.3,0l-25-6.5l-16.6,0.9l-14.9,1.9c-0.4,0-0.7-0.1-0.9-0.4c-0.2-0.3-0.2-0.7-0.1-1l5-9.1L7.4,69.1
	c-0.4-0.1-0.6-0.4-0.7-0.8c-0.1-0.4,0.1-0.8,0.4-1l10.2-7.7L5.2,47.5c-0.3-0.2-0.3-0.6-0.3-1c0.1-0.3,0.4-0.6,0.7-0.7l11.7-3.3
	L3.2,23.1c-0.2-0.3-0.3-0.8,0-1.1c0.2-0.3,0.6-0.5,1-0.5l20,3.5L19.8,3.2c-0.1-0.4,0.1-0.8,0.4-1c0.3-0.2,0.8-0.2,1.1,0L43,16.6
	L57.3,2.3c0.3-0.3,0.7-0.4,1-0.2C58.7,2.2,59,2.5,59,2.9l1.8,18.4L83.8,16c0.4-0.1,0.8,0,1,0.3c0.2,0.3,0.3,0.7,0.1,1l-8.9,20.5
	l15.9,7c0.3,0.2,0.6,0.5,0.6,0.9c0,0.4-0.2,0.7-0.5,0.9l-14.4,7.6l10.8,7.4c0.3,0.2,0.5,0.6,0.4,0.9c0,0.4-0.3,0.7-0.6,0.8l-9.3,4.2
	L84,78c0.1,0.3,0.1,0.7,0,0.9c-0.2,0.3-0.5,0.5-0.8,0.5l-11,0.8l0.8,5.5c0,0.3-0.1,0.7-0.3,0.9C72.4,86.8,72.2,86.9,72,86.9z
	 M46.8,78.3c0.1,0,0.2,0,0.3,0l23.7,6.1l-0.7-5c0-0.3,0-0.6,0.2-0.8s0.4-0.3,0.7-0.4l10.6-0.8l-4.9-9.8c-0.1-0.2-0.1-0.5,0-0.8
	c0.1-0.3,0.3-0.5,0.5-0.6l8.6-3.9L75.1,55c-0.3-0.2-0.4-0.5-0.4-0.9s0.2-0.7,0.5-0.8l14-7.4l-14.9-6.6c-0.5-0.2-0.7-0.8-0.5-1.3
	l8.5-19.6l-22.3,5.1c-0.3,0.1-0.6,0-0.8-0.2c-0.2-0.2-0.4-0.4-0.4-0.7L57.2,5.2L43.8,18.6c-0.3,0.3-0.9,0.4-1.3,0.1L22.2,5.2
	l4.2,20.9c0.1,0.3,0,0.7-0.3,0.9c-0.2,0.2-0.6,0.3-0.9,0.3L6.3,24l13.4,18.5c0.2,0.3,0.2,0.6,0.1,0.9s-0.4,0.5-0.7,0.6L7.8,47.2
	l11.8,11.8c0.2,0.2,0.3,0.5,0.3,0.8s-0.2,0.6-0.4,0.7l-9.6,7.2L21,70.9c0.3,0.1,0.5,0.3,0.6,0.6c0.1,0.3,0.1,0.6,0,0.9L17,80.9
	l13-1.6c0,0,0,0,0.1,0L46.8,78.3C46.8,78.3,46.8,78.3,46.8,78.3z"/>
<circle class="st1" cx="27" cy="64" r="6"/>
<path d="M27,71c-3.9,0-7-3.1-7-7s3.1-7,7-7s7,3.1,7,7S30.9,71,27,71z M27,59c-2.8,0-5,2.2-5,5c0,2.8,2.2,5,5,5s5-2.2,5-5
	S29.8,59,27,59z"/>
<circle class="st1" cx="68" cy="64" r="6"/>
<path d="M68,71c-3.9,0-7-3.1-7-7s3.1-7,7-7s7,3.1,7,7S71.9,71,68,71z M68,59c-2.8,0-5,2.2-5,5c0,2.8,2.2,5,5,5s5-2.2,5-5
	S70.8,59,68,59z"/>
<path class="st1" d="M26.9,41.6c0,0-3.7,29.1,3.7,42.3S59.4,98,64.9,83s4.3-31.7,2.8-43.2C64.9,19.1,28.8,12.5,26.9,41.6z"/>
<path d="M48.5,95c-7.7,0-15-4.1-18.7-10.6c-7.4-13.2-4-41.2-3.8-42.8C26.9,26.9,36.3,21.3,44.8,21c10.2-0.4,22.2,6.7,23.9,18.6
	c1.5,11.3,2.9,28.2-2.8,43.7c-2.5,6.7-8.3,11-15.7,11.6C49.6,95,49,95,48.5,95z M45.6,23c-0.2,0-0.5,0-0.7,0
	c-9.9,0.3-16.3,7.3-17,18.7c0,0,0,0,0,0.1c0,0.3-3.6,28.9,3.6,41.6c3.5,6.3,11,10.1,18.5,9.5c6.7-0.5,11.7-4.3,14-10.3
	c5.6-15.1,4.2-31.6,2.7-42.7C65.3,29.3,54.8,23,45.6,23z M26.9,41.6L26.9,41.6L26.9,41.6z"/>
<path class="st2" d="M31.7,46.5c-1,1.6-1.4,3.7-1,5.8c0.7,2.9,3.1,5.3,6,5.8c4.9,0.9,9.3-2.8,9.3-7.6c0-1.5-0.4-2.9-1.2-4.1H31.7z"
	/>
<path d="M38.2,58.8c-0.5,0-1.1,0-1.6-0.1c-3.1-0.6-5.7-3.1-6.4-6.2c-0.5-2.2-0.1-4.4,1-6.2c0.1-0.1,0.3-0.2,0.4-0.2h13.2
	c0.2,0,0.3,0.1,0.4,0.2c0.8,1.3,1.2,2.8,1.2,4.3c0,2.5-1.1,4.8-3,6.4C42,58.1,40.2,58.8,38.2,58.8z M31.9,47
	c-0.9,1.6-1.2,3.4-0.8,5.2c0.6,2.7,2.9,4.9,5.6,5.5c2.2,0.4,4.4-0.1,6-1.5c1.7-1.4,2.6-3.4,2.6-5.6c0-1.2-0.3-2.5-0.9-3.6H31.9z"/>
<path class="st1" d="M34.2,43.3c-2.2,1.3-3.6,3.7-3.7,6.3c5.2-1.4,10.3-1.6,15.4-0.6c-0.3-2.3-1.5-4.2-3.2-5.5"/>
<path d="M30.5,50.2c-0.1,0-0.2,0-0.3-0.1C30.1,50,30,49.8,30,49.7c0.1-2.8,1.6-5.3,3.9-6.7c0.2-0.1,0.5-0.1,0.7,0.2
	c0.1,0.2,0.1,0.5-0.2,0.7c-1.9,1.2-3.1,3.1-3.4,5.3c4.8-1.2,9.6-1.3,14.3-0.6c-0.4-1.8-1.4-3.4-2.9-4.4c-0.2-0.2-0.3-0.5-0.1-0.7
	c0.2-0.2,0.5-0.3,0.7-0.1c1.9,1.4,3.2,3.5,3.4,5.8c0,0.2,0,0.3-0.2,0.4c-0.1,0.1-0.3,0.2-0.4,0.1c-5-1-10.1-0.8-15.2,0.6
	C30.6,50.2,30.6,50.2,30.5,50.2z"/>
<path class="st2" d="M50.7,46.5c-1,1.6-1.4,3.7-1,5.8c0.7,2.9,3.1,5.3,6,5.8c4.9,0.9,9.3-2.8,9.3-7.6c0-1.5-0.4-2.9-1.2-4.1H50.7z"
	/>
<path d="M57.2,58.8c-0.5,0-1.1,0-1.6-0.1c-3.1-0.6-5.7-3.1-6.4-6.2c-0.5-2.2-0.1-4.4,1-6.2c0.1-0.1,0.3-0.2,0.4-0.2h13.2
	c0.2,0,0.3,0.1,0.4,0.2c0.8,1.3,1.2,2.8,1.2,4.3c0,2.5-1.1,4.8-3,6.4C61,58.1,59.2,58.8,57.2,58.8z M50.9,47
	c-0.9,1.6-1.2,3.4-0.8,5.2c0.6,2.7,2.9,4.9,5.6,5.5c2.2,0.4,4.4-0.1,6-1.5c1.7-1.4,2.6-3.4,2.6-5.6c0-1.2-0.3-2.5-0.9-3.6H50.9z"/>
<path class="st1" d="M53.2,43.3c-2.2,1.3-3.6,3.7-3.7,6.3c5.2-1.4,10.3-1.6,15.4-0.6c-0.3-2.3-1.5-4.2-3.2-5.5"/>
<path d="M49.5,50.2c-0.1,0-0.2,0-0.3-0.1C49.1,50,49,49.8,49,49.7c0.1-2.8,1.6-5.3,3.9-6.7c0.2-0.1,0.5-0.1,0.7,0.2
	c0.1,0.2,0.1,0.5-0.2,0.7c-1.9,1.2-3.1,3.1-3.4,5.3c4.8-1.2,9.6-1.3,14.3-0.6c-0.4-1.8-1.4-3.4-2.9-4.4c-0.2-0.2-0.3-0.5-0.1-0.7
	c0.2-0.2,0.5-0.3,0.7-0.1c1.9,1.4,3.2,3.5,3.4,5.8c0,0.2,0,0.3-0.2,0.4c-0.1,0.1-0.3,0.2-0.4,0.1c-5-1-10.1-0.8-15.2,0.6
	C49.6,50.2,49.6,50.2,49.5,50.2z"/>
<circle cx="38.5" cy="49.5" r="1.5"/>
<circle cx="57.5" cy="49.5" r="1.5"/>
<path d="M37.2,62.7c-3.4,0-5.6-2-5.7-2.1c-0.2-0.2-0.2-0.5,0-0.7c0.2-0.2,0.5-0.2,0.7,0c0.1,0.1,3.5,3.1,8.1,1.2
	c0.3-0.1,0.5,0,0.6,0.3s0,0.5-0.3,0.6C39.4,62.5,38.3,62.7,37.2,62.7z"/>
<path d="M57.1,62.7c-1,0-2.2-0.2-3.5-0.7c-0.3-0.1-0.4-0.4-0.3-0.6s0.4-0.4,0.6-0.3c4.7,1.9,8.1-1.2,8.1-1.2c0.2-0.2,0.5-0.2,0.7,0
	c0.2,0.2,0.2,0.5,0,0.7C62.7,60.7,60.5,62.7,57.1,62.7z"/>
<path d="M50.1,30.8c-0.2,0-0.5-0.2-0.5-0.4c0-0.3,0.1-0.5,0.4-0.6c1.2-0.2,2.3-0.4,3.4-0.7c0.3-0.1,0.5,0.1,0.6,0.3
	c0.1,0.3-0.1,0.5-0.3,0.6C52.6,30.3,51.4,30.5,50.1,30.8C50.1,30.7,50.1,30.8,50.1,30.8z"/>
<g>
	<path d="M43.4,31.3c-2.8,0-4.8-0.2-4.9-0.3c-0.3,0-0.5-0.3-0.4-0.6c0-0.3,0.3-0.5,0.6-0.4c0,0,3.8,0.5,8.3,0.1
		c0.3,0,0.5,0.2,0.5,0.5c0,0.3-0.2,0.5-0.5,0.5C45.7,31.2,44.5,31.3,43.4,31.3z"/>
</g>
<g>
	<path d="M47,69.8c-0.8,0-1.6-0.4-2.1-1.1c-0.6-0.8-0.9-1.8-0.9-3.1v-6c0-0.3,0.2-0.5,0.5-0.5s0.5,0.2,0.5,0.5v6c0,2.2,1,3.2,2,3.2
		s2-1,2-3.2v-6c0-0.3,0.2-0.5,0.5-0.5s0.5,0.2,0.5,0.5v6C50,68.4,48.4,69.8,47,69.8z"/>
</g>
<g>
	<path d="M58.5,80c-0.1,0-0.1,0-0.2,0c-11.6-4.9-22.5-0.1-22.6,0c-0.2,0.1-0.5,0-0.7-0.2c-0.1-0.3,0-0.5,0.2-0.7
		c0.1-0.1,11.3-5,23.4,0c0.3,0.1,0.4,0.4,0.3,0.7C58.9,79.9,58.7,80,58.5,80z"/>
</g>
<g>
	<line class="st3" x1="19.9" y1="36.9" x2="21.9" y2="39.6"/>
	<path d="M21.9,40.1c-0.1,0-0.3-0.1-0.4-0.2l-2-2.7c-0.2-0.2-0.1-0.5,0.1-0.7c0.2-0.2,0.5-0.1,0.7,0.1l2,2.7
		c0.2,0.2,0.1,0.5-0.1,0.7C22.1,40,22,40.1,21.9,40.1z"/>
</g>
<g>
	<line class="st3" x1="12.7" y1="27.6" x2="17.9" y2="34.3"/>
	<path d="M17.9,34.8c-0.1,0-0.3-0.1-0.4-0.2l-5.1-6.7c-0.2-0.2-0.1-0.5,0.1-0.7c0.2-0.2,0.5-0.1,0.7,0.1l5.1,6.7
		c0.2,0.2,0.1,0.5-0.1,0.7C18.1,34.7,18,34.8,17.9,34.8z"/>
</g>
<g>
	<line class="st3" x1="27.6" y1="17" x2="29.2" y2="24"/>
	<path d="M29.2,24.5c-0.2,0-0.4-0.2-0.5-0.4l-1.6-7c-0.1-0.3,0.1-0.5,0.4-0.6c0.3-0.1,0.5,0.1,0.6,0.4l1.6,7
		c0.1,0.3-0.1,0.5-0.4,0.6C29.3,24.5,29.2,24.5,29.2,24.5z"/>
</g>
<g>
	<line class="st3" x1="26.3" y1="11.2" x2="26.9" y2="14"/>
	<path d="M26.9,14.5c-0.2,0-0.4-0.2-0.5-0.4l-0.6-2.7c-0.1-0.3,0.1-0.5,0.4-0.6c0.3-0.1,0.5,0.1,0.6,0.4l0.6,2.7
		c0.1,0.3-0.1,0.5-0.4,0.6C27,14.5,26.9,14.5,26.9,14.5z"/>
</g>
<g>
	<path class="st4" d="M40.7,40.6c-2.5,0-5.2-0.2-8-0.6c-1.1-0.2-1.8-1.2-1.7-2.3c0.2-1.1,1.2-1.8,2.3-1.7c6.6,1,12.4,0.4,17.5-0.1
		c4.7-0.5,8.7-0.9,11.9,0.2c1,0.4,1.6,1.5,1.2,2.6s-1.5,1.6-2.6,1.2c-2.3-0.8-5.9-0.4-10.1,0C48.2,40.2,44.6,40.6,40.7,40.6z"/>
	<path d="M40.7,41.1c-2.9,0-5.5-0.2-8.1-0.6c-1.4-0.2-2.3-1.5-2.1-2.9c0.1-0.7,0.5-1.2,1-1.6c0.5-0.4,1.2-0.6,1.9-0.5
		c6.5,1,12.3,0.4,17.4-0.1c4.7-0.5,8.8-0.9,12.1,0.2c0.6,0.2,1.1,0.7,1.4,1.3c0.3,0.6,0.3,1.3,0.1,1.9c-0.5,1.3-1.9,2-3.2,1.5
		c-2.2-0.8-5.8-0.4-9.9,0C48.2,40.7,44.6,41.1,40.7,41.1z M33,36.5c-0.3,0-0.6,0.1-0.9,0.3c-0.3,0.2-0.5,0.6-0.6,1
		c-0.1,0.8,0.4,1.6,1.3,1.7c2.6,0.4,5.2,0.6,8,0.6c3.9,0,7.3-0.4,10.4-0.7c4.3-0.4,7.9-0.8,10.3,0c0.8,0.3,1.6-0.1,1.9-0.9
		c0.1-0.4,0.1-0.8-0.1-1.1s-0.5-0.6-0.8-0.8c-3.1-1.1-7-0.7-11.6-0.2c-5.1,0.5-11,1.2-17.6,0.1C33.1,36.5,33.1,36.5,33,36.5z"/>
</g>
</svg>
